# xmcd
#
# Track frame offsets:
#	150
#	16532
#	34909
#	51849
#	66839
#	81832
#	98378
#	114338
#	128637
#	140891
#	158407
#	178220
#	196369
#	210641
#	225822
#	240178
#	254963
#	271889
#	284239
#	299927
#
# Disc length: 4252 seconds
#
# Revision: 1
# Processed by: cddbd v1.5.2PL0 Copyright (c) Steve Scherf et al.
# Submitted via: audiograbber 1.83.01
#
DISCID=22109a14
DTITLE=Compilation - CDX 421
DYEAR=1900
DGENRE=
TTITLE0=Martina McBride - How I Feel
TTITLE1=Keith Urban - I Told You So
TTITLE2=Trace Adkins - I Wanna Feel Something
TTITLE3=Jack Ingram - Measure Of A Man
TTITLE4=Donovan Chapman - All I Need
TTITLE5=Shawn King and Willie Nelson - I Give
TTITLE6=Daryle Singletary - Jesus And Bartenders
TTITLE7=Joey Scarbury - Just A Memory
TTITLE8=Ronnie Bear - Mobile Home
TTITLE9=Carmen Rasmusen - Nothin' Like The Summer
TTITLE10=Confederate Railroad - Please Come To Boston
TTITLE11=Vince Hatfield - The Tide Turned
TTITLE12=Chad Bradford - Cornbread Fed
TTITLE13=Kevin Wood - Hello Love
TTITLE14=Jernie Tales - High Performance Woman
TTITLE15=Brett Daniels - I Wanna Live Like That
TTITLE16=Liz Carlisle - Let Me Be The One
TTITLE17=Doug Fairley - Rise Above It All
TTITLE18=Chris Gray - Savin' It Up For A Sunny Day
TTITLE19=Larry Joe Cashen and Guns Of Dixie - Jesse James
EXTD=
EXTT0=
EXTT1=
EXTT2=
EXTT3=
EXTT4=
EXTT5=
EXTT6=
EXTT7=
EXTT8=
EXTT9=
EXTT10=
EXTT11=
EXTT12=
EXTT13=
EXTT14=
EXTT15=
EXTT16=
EXTT17=
EXTT18=
EXTT19=
PLAYORDER=
